<?xml version="1.0" encoding="UTF-8"?>
<!DOCTYPE svg PUBLIC "-//W3C//DTD SVG 1.1//EN" "http://www.w3.org/Graphics/SVG/1.1/DTD/svg11.dtd">
<!-- Creator: CorelDRAW -->
<svg xmlns="http://www.w3.org/2000/svg" xml:space="preserve" width="6.82666in" height="6.82666in" style="shape-rendering:geometricPrecision; text-rendering:geometricPrecision; image-rendering:optimizeQuality; fill-rule:evenodd; clip-rule:evenodd"
viewBox="0 0 6.82666 6.82666"
 xmlns:xlink="http://www.w3.org/1999/xlink">
 <defs>
  <style type="text/css">
   <![CDATA[
    .fil2 {fill:none}
    .fil4 {fill:#558B2F}
    .fil1 {fill:#5D4037}
    .fil3 {fill:#689F38}
    .fil0 {fill:#6D4C41}
    .fil5 {fill:#8BC34A}
   ]]>
  </style>
   <clipPath id="id0">
    <path d="M3.41333 -3.93701e-006c1.88513,0 3.41333,1.5282 3.41333,3.41333 0,1.88513 -1.5282,3.41333 -3.41333,3.41333 -1.88513,0 -3.41333,-1.5282 -3.41333,-3.41333 0,-1.88513 1.5282,-3.41333 3.41333,-3.41333z"/>
   </clipPath>
 </defs>
 <g id="Layer_x0020_1">
  <metadata id="CorelCorpID_0Corel-Layer"/>
  <path class="fil0" d="M3.41333 -3.93701e-006c1.88513,0 3.41333,1.5282 3.41333,3.41333 0,1.88513 -1.5282,3.41333 -3.41333,3.41333 -1.88513,0 -3.41333,-1.5282 -3.41333,-3.41333 0,-1.88513 1.5282,-3.41333 3.41333,-3.41333z"/>
  <g style="clip-path:url(#id0)">
   <g id="_457192472">
    <g>
     <polygon id="_4607527601" class="fil1" points="3.53278,2.57509 7.31905,6.36137 7.31279,6.35579 7.30656,6.35021 7.30037,6.34463 7.2942,6.33904 7.28806,6.33346 7.28195,6.32787 7.27587,6.32229 7.2698,6.31672 7.26375,6.31115 7.25772,6.30558 7.25171,6.30002 7.24571,6.29448 7.23972,6.28894 7.23374,6.28341 7.22776,6.2779 7.22179,6.2724 3.43552,2.48613 3.44149,2.49163 3.44747,2.49714 3.45345,2.50267 3.45944,2.5082 3.46544,2.51375 3.47146,2.51931 3.47748,2.52487 3.48353,2.53044 3.4896,2.53602 3.49569,2.5416 3.5018,2.54719 3.50793,2.55277 3.5141,2.55835 3.52029,2.56394 3.52652,2.56952 "/>
     <polygon id="_460752808" class="fil1" points="3.36326,3.36874 7.14953,7.15501 7.14468,7.15081 7.13984,7.1466 7.13503,7.14239 7.13024,7.13818 7.12546,7.13396 7.1207,7.12974 7.11596,7.12552 7.11123,7.1213 7.10652,7.11707 7.10182,7.11284 7.09714,7.10862 7.09248,7.10439 7.08782,7.10016 7.08318,7.09593 7.07855,7.0917 7.07393,7.08748 7.06932,7.08325 7.06472,7.07903 7.06013,7.07481 7.05556,7.07059 7.05098,7.06637 7.04642,7.06216 7.04186,7.05795 7.03731,7.05375 7.03277,7.04955 7.02823,7.04535 7.02369,7.04116 7.01916,7.03697 7.01463,7.0328 7.01011,7.02862 7.00559,7.02445 7.00107,7.02029 3.2148,3.23402 3.21932,3.23818 3.22384,3.24235 3.22837,3.24652 3.23289,3.2507 3.23743,3.25489 3.24196,3.25908 3.2465,3.26328 3.25104,3.26748 3.25559,3.27168 3.26015,3.27589 3.26471,3.2801 3.26929,3.28432 3.27387,3.28854 3.27845,3.29276 3.28305,3.29698 3.28766,3.30121 3.29228,3.30543 3.29691,3.30966 3.30155,3.31389 3.30621,3.31812 3.31087,3.32235 3.31556,3.32657 3.32025,3.3308 3.32496,3.33502 3.32969,3.33925 3.33443,3.34347 3.33919,3.34769 3.34397,3.35191 3.34876,3.35612 3.35357,3.36033 3.35841,3.36454 "/>
     <polygon id="_460752880" class="fil1" points="3.2148,3.23402 7.00107,7.02029 6.99204,7.0361 6.98215,7.05137 6.9714,7.06606 6.95981,7.08012 6.94738,7.09351 6.93413,7.10619 6.92006,7.11812 6.90517,7.12925 6.88949,7.13954 6.87302,7.14894 6.85576,7.15742 6.83773,7.16493 6.81894,7.17142 6.79939,7.17685 6.77909,7.18119 6.75806,7.18439 6.7363,7.18639 6.71383,7.18717 6.69064,7.18668 6.66675,7.18487 6.64217,7.1817 6.6169,7.17713 6.59096,7.17111 6.56436,7.1636 6.5371,7.15457 6.50919,7.14396 6.48065,7.13173 6.45147,7.11784 6.42168,7.10224 6.39127,7.0849 6.36026,7.06577 6.32867,7.04481 2.5424,3.25854 2.574,3.2795 2.605,3.29863 2.63541,3.31597 2.6652,3.33157 2.69438,3.34546 2.72292,3.35769 2.75083,3.3683 2.77809,3.37733 2.80469,3.38484 2.83063,3.39085 2.8559,3.39543 2.88048,3.39859 2.90437,3.40041 2.92756,3.4009 2.95004,3.40012 2.9718,3.39811 2.99283,3.39492 3.01312,3.39058 3.03267,3.38515 3.05146,3.37865 3.06949,3.37115 3.08675,3.36267 3.10322,3.35327 3.11891,3.34298 3.13379,3.33185 3.14786,3.31992 3.16111,3.30724 3.17354,3.29385 3.18513,3.27978 3.19588,3.2651 3.20577,3.24983 "/>
     <polygon id="_460753096" class="fil1" points="3.27711,4.31062 7.06338,8.09689 7.05795,8.09215 7.05255,8.08741 7.04717,8.08267 7.0418,8.07792 7.03645,8.07317 7.03112,8.06841 7.02581,8.06366 7.02051,8.0589 7.01523,8.05414 7.00996,8.04938 7.00471,8.04462 6.99947,8.03986 6.99425,8.0351 6.98904,8.03035 6.98384,8.02559 6.97865,8.02083 6.97347,8.01608 6.9683,8.01133 6.96315,8.00657 6.958,8.00183 6.95285,7.99708 6.94772,7.99234 6.94259,7.98761 6.93748,7.98288 6.93236,7.97815 6.92726,7.97343 6.92215,7.96871 6.91705,7.964 6.91196,7.9593 6.90686,7.9546 6.90178,7.94991 6.89669,7.94522 3.11042,4.15895 3.11551,4.16364 3.12059,4.16833 3.12569,4.17302 3.13078,4.17773 3.13588,4.18244 3.14099,4.18716 3.14609,4.19188 3.15121,4.19661 3.15633,4.20134 3.16145,4.20607 3.16659,4.21081 3.17173,4.21556 3.17688,4.2203 3.18204,4.22506 3.1872,4.22981 3.19238,4.23456 3.19757,4.23931 3.20277,4.24407 3.20798,4.24883 3.2132,4.25359 3.21844,4.25835 3.2237,4.26311 3.22896,4.26787 3.23424,4.27263 3.23954,4.27739 3.24485,4.28214 3.25019,4.28689 3.25553,4.29165 3.2609,4.29639 3.26628,4.30114 3.27169,4.30588 "/>
     <polygon id="_460753792" class="fil1" points="3.11042,4.15895 6.89669,7.94522 6.88593,7.96406 6.87414,7.98226 6.86133,7.99976 6.84752,8.01651 6.83271,8.03247 6.81692,8.04759 6.80015,8.0618 6.78241,8.07506 6.76373,8.08732 6.7441,8.09853 6.72354,8.10863 6.70205,8.11757 6.67966,8.12531 6.65636,8.13179 6.63218,8.13696 6.60712,8.14076 6.58119,8.14315 6.5544,8.14408 6.52677,8.14349 6.4983,8.14133 6.46901,8.13756 6.43891,8.13211 6.408,8.12494 6.3763,8.116 6.34381,8.10523 6.31056,8.09258 6.27654,8.07801 6.24178,8.06146 6.20628,8.04288 6.17004,8.02222 6.13309,7.99942 6.09544,7.97444 2.30917,4.18817 2.34683,4.21315 2.38378,4.23594 2.42001,4.25661 2.45551,4.27519 2.49027,4.29174 2.52429,4.30631 2.55754,4.31896 2.59003,4.32972 2.62173,4.33867 2.65264,4.34584 2.68274,4.35128 2.71204,4.35506 2.7405,4.35722 2.76813,4.35781 2.79492,4.35688 2.82085,4.35449 2.84591,4.35069 2.87009,4.34552 2.89339,4.33904 2.91578,4.3313 2.93727,4.32236 2.95783,4.31226 2.97746,4.30105 2.99615,4.28879 3.01388,4.27553 3.03065,4.26131 3.04644,4.2462 3.06126,4.23024 3.07507,4.21348 3.08787,4.19598 3.09966,4.17779 "/>
     <polygon id="_460753888" class="fil1" points="2.5424,3.25854 6.32867,7.04481 6.31469,7.03492 6.30068,7.02445 6.28662,7.01344 6.2725,7.00193 6.25831,6.98995 6.24404,6.97754 6.22967,6.96474 6.21519,6.9516 6.20058,6.93813 6.18584,6.92439 6.17095,6.91042 6.1559,6.89624 6.14068,6.8819 6.12527,6.86743 6.10966,6.85288 6.09383,6.83827 6.07779,6.82366 6.06151,6.80907 6.04498,6.79454 6.02818,6.78012 6.01111,6.76583 5.99375,6.75173 5.97609,6.73783 5.95812,6.7242 5.93982,6.71085 5.92119,6.69783 5.9022,6.68518 5.88284,6.67293 5.86311,6.66112 5.843,6.6498 5.82247,6.63898 5.80154,6.62873 2.01527,2.84246 2.0362,2.85271 2.05673,2.86352 2.07685,2.87485 2.09657,2.88666 2.11593,2.89891 2.13492,2.91156 2.15356,2.92458 2.17185,2.93793 2.18983,2.95156 2.20748,2.96546 2.22484,2.97956 2.24191,2.99385 2.25871,3.00827 2.27524,3.0228 2.29152,3.03739 2.30757,3.052 2.32339,3.06661 2.339,3.08116 2.35441,3.09563 2.36963,3.10997 2.38468,3.12415 2.39957,3.13812 2.41431,3.15186 2.42892,3.16533 2.4434,3.17847 2.45777,3.19127 2.47204,3.20368 2.48623,3.21565 2.50035,3.22717 2.51441,3.23818 2.52842,3.24865 "/>
     <polygon id="_460754008" class="fil1" points="2.30917,4.18817 6.09544,7.97444 6.07878,7.96265 6.06209,7.95018 6.04534,7.93706 6.02852,7.92334 6.01161,7.90907 5.99459,7.89428 5.97747,7.87904 2.1912,4.09276 2.20833,4.10801 2.22534,4.1228 2.24225,4.13707 2.25907,4.15079 2.27582,4.16391 2.29252,4.17638 "/>
     <polygon id="_460753936" class="fil1" points="2.01022,3.92464 5.79649,7.71091 5.77709,7.69353 5.75739,7.67622 5.73738,7.65903 5.71704,7.64201 5.69635,7.6252 5.67531,7.60865 5.65389,7.59239 5.63209,7.57649 5.60988,7.56097 5.58725,7.54589 5.56419,7.5313 5.54068,7.51723 5.5167,7.50373 5.49225,7.49085 5.4673,7.47863 1.68104,3.69236 1.70598,3.70458 1.73044,3.71746 1.75441,3.73096 1.77793,3.74503 1.80098,3.75962 1.82361,3.7747 1.84582,3.79022 1.86763,3.80612 1.88904,3.82237 1.91008,3.83893 1.93077,3.85574 1.95111,3.87276 1.97112,3.88994 1.99082,3.90726 "/>
     <polygon id="_460753696" class="fil1" points="3.91772,5.28 7.70399,9.06627 7.08177,9.06627 3.2955,5.28 "/>
     <polygon id="_460753744" class="fil1" points="3.02319,3.63894 6.80946,7.42521 6.83902,7.45716 6.86485,7.49079 6.88698,7.52586 6.9055,7.56211 6.92044,7.59928 6.93185,7.63713 6.9398,7.67539 6.94433,7.7138 6.9455,7.75213 6.94336,7.79009 6.93796,7.82746 6.92937,7.86396 6.91762,7.89935 3.13135,4.11308 3.1431,4.07769 3.1517,4.04119 3.15709,4.00382 3.15923,3.96585 3.15806,3.92753 3.15353,3.88911 3.14558,3.85085 3.13417,3.81301 3.11923,3.77584 3.10072,3.73959 3.07858,3.70452 3.05275,3.67089 "/>
     <polygon id="_460753864" class="fil1" points="2.89196,2.50595 6.67823,6.29222 6.66693,6.28422 6.6556,6.27576 6.64424,6.26686 6.63283,6.25756 6.62135,6.24787 6.60982,6.23784 6.5982,6.2275 6.58649,6.21687 6.57469,6.20599 6.56277,6.19488 6.55074,6.18358 6.53857,6.17212 6.52626,6.16053 6.51381,6.14883 6.50119,6.13707 6.4884,6.12526 6.47543,6.11345 6.46227,6.10165 6.4489,6.08991 6.43533,6.07825 6.42153,6.0667 6.4075,6.0553 6.39322,6.04407 6.37869,6.03305 6.3639,6.02226 6.34883,6.01173 6.33348,6.0015 6.31784,5.9916 6.30189,5.98206 6.28563,5.9729 6.26904,5.96416 6.25211,5.95587 2.46584,2.1696 2.48277,2.17789 2.49936,2.18663 2.51562,2.19578 2.53157,2.20533 2.54722,2.21523 2.56257,2.22546 2.57763,2.23598 2.59243,2.24678 2.60695,2.2578 2.62123,2.26903 2.63526,2.28043 2.64906,2.29198 2.66263,2.30364 2.676,2.31538 2.68916,2.32718 2.70213,2.33899 2.71492,2.3508 2.72754,2.36256 2.74,2.37426 2.7523,2.38585 2.76447,2.39731 2.7765,2.40861 2.78842,2.41972 2.80022,2.4306 2.81193,2.44123 2.82355,2.45157 2.83509,2.4616 2.84656,2.47128 2.85797,2.48059 2.86933,2.48949 2.88066,2.49795 "/>
     <polygon id="_460754176" class="fil1" points="3.1416,2.79763 6.92787,6.5839 6.95267,6.61071 6.97435,6.63893 6.99293,6.66837 7.00846,6.69878 7.021,6.72998 7.03058,6.76174 7.03725,6.79385 7.04105,6.82608 7.04203,6.85824 7.04024,6.89011 7.03571,6.92146 7.02849,6.9521 7.01863,6.9818 3.23237,3.19552 3.24222,3.16583 3.24944,3.13519 3.25397,3.10384 3.25576,3.07197 3.25478,3.03981 3.25098,3.00757 3.24431,2.97547 3.23473,2.94371 3.22219,2.91251 3.20666,2.88209 3.18808,2.85266 3.16641,2.82444 "/>
     <polygon id="_460754344" class="fil1" points="3.75868,3.89267 7.54494,7.67894 7.54706,7.72248 7.54935,7.766 7.55183,7.80951 7.5545,7.853 7.55735,7.89649 7.56039,7.93996 7.56361,7.98343 7.56702,8.02688 7.57061,8.07032 7.57439,8.11374 7.57834,8.15716 7.58249,8.20057 7.58682,8.24396 7.59133,8.28734 7.59603,8.33072 7.60091,8.37407 7.60597,8.41742 7.61122,8.46076 7.61666,8.50408 7.62228,8.5474 7.62807,8.5907 7.63406,8.63399 7.64023,8.67727 7.64658,8.72054 7.65311,8.7638 7.65983,8.80704 7.66674,8.85028 7.67382,8.8935 7.68109,8.93671 7.68854,8.97991 7.69617,9.02309 7.70399,9.06627 3.91772,5.28 3.90991,5.23682 3.90227,5.19363 3.89482,5.15044 3.88755,5.10722 3.88047,5.064 3.87357,5.02077 3.86685,4.97752 3.86031,4.93427 3.85396,4.891 3.84779,4.84772 3.84181,4.80443 3.83601,4.76113 3.83039,4.71781 3.82496,4.67449 3.8197,4.63115 3.81464,4.5878 3.80976,4.54444 3.80506,4.50107 3.80055,4.45769 3.79622,4.4143 3.79207,4.37089 3.78812,4.32747 3.78434,4.28405 3.78075,4.24061 3.77734,4.19715 3.77412,4.15369 3.77109,4.11022 3.76823,4.06673 3.76557,4.02324 3.76309,3.97972 3.76079,3.9362 "/>
     <polygon id="_460753672" class="fil1" points="3.43552,2.48613 7.22179,6.2724 7.21449,6.28518 7.20649,6.29752 7.19781,6.30939 7.18844,6.32076 7.17839,6.33159 7.16767,6.34184 7.1563,6.35148 7.14427,6.36048 7.13159,6.3688 7.11827,6.3764 7.10432,6.38325 7.08975,6.38932 7.07456,6.39457 7.05876,6.39896 7.04235,6.40247 7.02535,6.40505 7.00776,6.40667 6.98959,6.4073 6.97084,6.4069 6.95153,6.40544 6.93166,6.40288 6.91123,6.39918 6.89026,6.39432 6.86876,6.38825 6.84672,6.38095 6.82416,6.37237 6.80109,6.36248 6.7775,6.35126 6.75342,6.33865 6.72884,6.32463 6.70377,6.30917 6.67823,6.29222 2.89196,2.50595 2.9175,2.5229 2.94257,2.53836 2.96715,2.55238 2.99124,2.56498 3.01482,2.57621 3.03789,2.5861 3.06045,2.59468 3.08249,2.60198 3.104,2.60805 3.12496,2.61291 3.14539,2.61661 3.16526,2.61917 3.18457,2.62063 3.20332,2.62103 3.22149,2.6204 3.23908,2.61878 3.25608,2.6162 3.27249,2.61269 3.28829,2.6083 3.30348,2.60305 3.31806,2.59698 3.332,2.59013 3.34532,2.58252 3.358,2.57421 3.37003,2.56521 3.38141,2.55557 3.39212,2.54532 3.40217,2.53449 3.41154,2.52312 3.42022,2.51125 3.42822,2.49891 "/>
     <polygon id="_460755112" class="fil1" points="3.37635,2.13336 7.16261,5.91963 7.18267,5.9413 7.20019,5.96412 7.2152,5.98791 7.22776,6.0125 7.2379,6.03772 7.24564,6.06339 7.25104,6.08935 7.25411,6.11541 7.2549,6.14141 7.25345,6.16716 7.24979,6.19251 7.24396,6.21727 7.23599,6.24128 3.44972,2.45501 3.45769,2.431 3.46352,2.40624 3.46718,2.38089 3.46863,2.35513 3.46784,2.32913 3.46477,2.30307 3.45937,2.27712 3.45163,2.25145 3.4415,2.22623 3.42894,2.20164 3.41392,2.17785 3.3964,2.15503 "/>
     <polygon id="_460754656" class="fil1" points="3.75339,3.07687 7.53966,6.86314 7.53889,6.88687 7.53819,6.91059 7.53754,6.93431 7.53694,6.95803 7.53639,6.98174 7.53591,7.00545 7.53547,7.02916 7.53509,7.05286 7.53477,7.07656 7.5345,7.10026 7.53428,7.12395 7.53413,7.14764 7.53402,7.17133 7.53397,7.19501 7.53397,7.21869 7.53403,7.24237 7.53415,7.26604 7.53431,7.2897 7.53454,7.31337 7.53482,7.33704 7.53515,7.36069 7.53554,7.38435 7.53598,7.408 7.53648,7.43165 7.53703,7.4553 7.53763,7.47894 7.53829,7.50258 7.53901,7.52621 7.53978,7.54985 7.5406,7.57347 7.54148,7.5971 7.54241,7.62072 3.75615,3.83445 3.75521,3.81083 3.75433,3.7872 3.75351,3.76357 3.75274,3.73994 3.75202,3.71631 3.75137,3.69267 3.75076,3.66902 3.75021,3.64538 3.74971,3.62173 3.74927,3.59808 3.74888,3.57442 3.74855,3.55076 3.74827,3.5271 3.74805,3.50343 3.74788,3.47976 3.74776,3.45609 3.7477,3.43242 3.7477,3.40874 3.74775,3.38506 3.74786,3.36137 3.74802,3.33768 3.74823,3.31398 3.7485,3.29029 3.74882,3.26659 3.7492,3.24289 3.74964,3.21918 3.75013,3.19547 3.75067,3.17176 3.75127,3.14804 3.75192,3.12432 3.75263,3.10059 "/>
     <polygon id="_460754992" class="fil1" points="3.91772,1.54666 7.70399,5.33293 7.69566,5.37951 7.68754,5.42607 7.67963,5.47262 7.67193,5.51916 7.66443,5.56568 7.65715,5.61219 7.65008,5.65869 7.64322,5.70518 7.63657,5.75165 7.63013,5.79811 7.62389,5.84455 7.61787,5.89098 7.61206,5.9374 7.60645,5.98381 7.60106,6.0302 7.59587,6.07658 7.5909,6.12295 7.58613,6.1693 7.58157,6.21565 7.57722,6.26197 7.57308,6.30829 7.56915,6.35459 7.56543,6.40088 7.56192,6.44716 7.55861,6.49342 7.55551,6.53967 7.55262,6.58591 7.54994,6.63213 7.54747,6.67834 7.5452,6.72454 7.54315,6.77073 7.5413,6.8169 3.75503,3.03063 3.75688,2.98446 3.75894,2.93827 3.7612,2.89207 3.76367,2.84586 3.76635,2.79964 3.76924,2.7534 3.77234,2.70715 3.77565,2.66089 3.77916,2.61461 3.78289,2.56832 3.78681,2.52202 3.79096,2.4757 3.79531,2.42937 3.79986,2.38303 3.80463,2.33668 3.80961,2.29031 3.81479,2.24393 3.82019,2.19754 3.82579,2.15113 3.8316,2.10471 3.83763,2.05828 3.84386,2.01183 3.8503,1.96537 3.85695,1.91891 3.86381,1.87242 3.87088,1.82592 3.87817,1.77941 3.88566,1.73289 3.89336,1.68635 3.90127,1.6398 3.90939,1.59324 "/>
     <polygon id="_460754920" class="fil1" points="4.79283,2.67395 8.5791,6.46022 8.56286,6.46817 8.54694,6.47656 8.53134,6.48534 8.51604,6.4945 8.50103,6.504 8.4863,6.51381 8.47184,6.52391 8.45765,6.53426 8.44371,6.54484 8.43002,6.55562 8.41655,6.56656 8.40331,6.57764 8.39029,6.58883 8.37746,6.60009 8.36483,6.61141 8.35239,6.62274 8.34012,6.63407 8.32801,6.64536 8.31606,6.65658 8.30425,6.6677 8.29258,6.6787 8.28103,6.68954 8.2696,6.7002 8.25827,6.71064 8.24704,6.72084 8.23589,6.73076 8.22482,6.74039 8.21381,6.74968 8.20287,6.75861 8.19196,6.76715 8.18109,6.77526 8.17025,6.78293 4.38398,2.99666 4.39483,2.98899 4.40569,2.98087 4.4166,2.97233 4.42755,2.96341 4.43855,2.95411 4.44963,2.94449 4.46077,2.93457 4.472,2.92437 4.48333,2.91393 4.49476,2.90327 4.50631,2.89243 4.51798,2.88143 4.52979,2.87031 4.54174,2.85909 4.55385,2.8478 4.56612,2.83647 4.57857,2.82514 4.5912,2.81382 4.60402,2.80256 4.61704,2.79137 4.63028,2.78029 4.64375,2.76935 4.65744,2.75857 4.67139,2.74799 4.68557,2.73764 4.70003,2.72754 4.71476,2.71773 4.72977,2.70823 4.74507,2.69907 4.76068,2.69029 4.77659,2.6819 "/>
     <polygon id="_460754680" class="fil1" points="3.86246,2.97765 7.64873,6.76392 7.64207,6.77005 7.63541,6.7762 7.62873,6.78237 7.62205,6.78855 7.61534,6.79474 7.60862,6.80095 7.60188,6.80716 7.59511,6.81338 7.58831,6.81961 7.58148,6.82583 7.57462,6.83206 7.56771,6.83828 7.56077,6.84451 7.55378,6.85072 7.54674,6.85694 7.53966,6.86314 3.75339,3.07687 3.76048,3.07067 3.76751,3.06445 3.7745,3.05824 3.78144,3.05201 3.78835,3.04579 3.79521,3.03956 3.80204,3.03333 3.80884,3.02711 3.81561,3.02089 3.82235,3.01468 3.82907,3.00847 3.83578,3.00228 3.84246,2.9961 3.84914,2.98993 3.85581,2.98378 "/>
     <polygon id="_460754752" class="fil1" points="4.38398,2.99666 8.17025,6.78293 8.14574,6.79919 8.12169,6.81403 8.09811,6.82748 8.075,6.83957 8.05238,6.85035 8.03024,6.85983 8.00859,6.86806 7.98745,6.87507 7.96681,6.88089 7.9467,6.88556 7.9271,6.88911 7.90804,6.89156 7.8895,6.89297 7.87152,6.89335 7.85409,6.89275 7.83721,6.89119 7.8209,6.88872 7.80516,6.88535 7.78999,6.88113 7.77542,6.8761 7.76143,6.87028 7.74805,6.8637 7.73527,6.85641 7.72311,6.84843 7.71157,6.8398 7.70065,6.83054 7.69037,6.82071 3.9041,3.03444 3.91439,3.04427 3.9253,3.05352 3.93684,3.06216 3.949,3.07013 3.96178,3.07743 3.97517,3.084 3.98915,3.08983 4.00372,3.09486 4.01889,3.09908 4.03463,3.10244 4.05094,3.10492 4.06782,3.10648 4.08525,3.10708 4.10324,3.1067 4.12177,3.10529 4.14083,3.10283 4.16043,3.09929 4.18055,3.09462 4.20118,3.0888 4.22232,3.08179 4.24397,3.07356 4.26611,3.06408 4.28874,3.0533 4.31185,3.04121 4.33543,3.02776 4.35948,3.01292 "/>
     <polygon id="_460754560" class="fil1" points="5.14563,3.36297 8.93189,7.14924 8.90997,7.15998 8.88849,7.1713 8.86742,7.18315 8.84676,7.19552 8.8265,7.20834 8.80662,7.22159 8.78711,7.23522 8.76795,7.24919 8.74913,7.26348 8.73065,7.27802 8.71247,7.29279 8.6946,7.30774 8.67702,7.32285 8.65971,7.33806 8.64266,7.35333 8.62586,7.36863 8.6093,7.38392 8.59296,7.39916 8.57682,7.4143 8.56089,7.42932 8.54513,7.44417 8.52954,7.4588 8.51411,7.47319 8.49882,7.48728 8.48365,7.50104 8.46861,7.51444 8.45367,7.52743 8.43881,7.53997 8.42403,7.55202 8.40931,7.56355 8.39464,7.57451 8.38,7.58487 4.59374,3.79859 4.60837,3.78824 4.62304,3.77728 4.63776,3.76575 4.65254,3.7537 4.6674,3.74116 4.68234,3.72817 4.69739,3.71477 4.71255,3.70101 4.72784,3.68691 4.74327,3.67253 4.75886,3.65789 4.77462,3.64305 4.79056,3.62803 4.80669,3.61289 4.82303,3.59765 4.83959,3.58236 4.85639,3.56706 4.87344,3.55178 4.89075,3.53657 4.90833,3.52147 4.9262,3.50652 4.94438,3.49175 4.96287,3.4772 4.98169,3.46292 5.00084,3.44895 5.02035,3.43531 5.04024,3.42207 5.0605,3.40924 5.08115,3.39688 5.10222,3.38502 5.1237,3.37371 "/>
     <polygon id="_460754704" class="fil1" points="3.88975,3.77293 7.67602,7.5592 7.672,7.5629 7.66798,7.5666 7.66396,7.57031 7.65994,7.57402 7.65591,7.57774 7.65188,7.58146 7.64785,7.58519 7.64382,7.58891 7.63978,7.59265 7.63574,7.59639 7.63169,7.60012 7.62764,7.60387 7.62358,7.60761 7.61952,7.61136 7.61545,7.61511 7.61137,7.61886 7.60729,7.62261 7.6032,7.62637 7.5991,7.63012 7.595,7.63388 7.59088,7.63763 7.58676,7.64139 7.58262,7.64515 7.57848,7.64891 7.57433,7.65267 7.57017,7.65642 7.56599,7.66018 7.56181,7.66394 7.55761,7.66769 7.5534,7.67144 7.54918,7.6752 7.54494,7.67894 3.75868,3.89267 3.76291,3.88893 3.76713,3.88517 3.77134,3.88142 3.77554,3.87767 3.77972,3.87391 3.7839,3.87015 3.78806,3.86639 3.79221,3.86263 3.79635,3.85888 3.80049,3.85512 3.80461,3.85136 3.80873,3.84761 3.81283,3.84385 3.81693,3.84009 3.82102,3.83634 3.82511,3.83259 3.82918,3.82883 3.83325,3.82509 3.83731,3.82134 3.84137,3.81759 3.84542,3.81385 3.84947,3.81011 3.85351,3.80638 3.85755,3.80264 3.86158,3.79891 3.86561,3.79519 3.86964,3.79147 3.87367,3.78775 3.87769,3.78404 3.88171,3.78033 3.88573,3.77663 "/>
     <polygon id="_460755136" class="fil1" points="4.59374,3.79859 8.38,7.58487 8.34692,7.60681 8.31446,7.62685 8.28262,7.645 8.25143,7.66133 8.22089,7.67587 8.191,7.68867 8.16178,7.69978 8.13324,7.70924 8.10539,7.7171 8.07823,7.7234 8.05178,7.72819 8.02604,7.7315 8.00103,7.7334 7.97675,7.73392 7.95322,7.7331 7.93043,7.731 7.90841,7.72766 7.88717,7.72312 7.8667,7.71743 7.84702,7.71063 7.82815,7.70277 7.81008,7.69389 7.79283,7.68405 7.77642,7.67328 7.76083,7.66163 7.7461,7.64914 7.73222,7.63586 3.94596,3.84959 3.95983,3.86287 3.97457,3.87535 3.99015,3.887 4.00657,3.89778 4.02381,3.90762 4.04188,3.9165 4.06076,3.92436 4.08043,3.93116 4.1009,3.93685 4.12215,3.94139 4.14417,3.94473 4.16695,3.94683 4.19048,3.94765 4.21476,3.94713 4.23978,3.94523 4.26551,3.94191 4.29196,3.93713 4.31912,3.93083 4.34697,3.92297 4.37552,3.91351 4.40473,3.9024 4.43462,3.8896 4.46516,3.87506 4.49635,3.85873 4.52819,3.84057 4.56065,3.82054 "/>
    </g>
    <path id="_457192688" class="fil1" d="M3.87135 3.73262c-0.124685,-0.325622 0.214858,-0.856858 1.27427,-0.36965 -0.236185,0.111268 -0.395933,0.328555 -0.55189,0.435622 -0.356173,0.244531 -0.608016,0.15372 -0.703988,-0.0256654 -0.0428543,0.0394134 -0.0858386,0.0797559 -0.131071,0.119744 0.0215354,0.464402 0.074685,0.926835 0.159047,1.38733l-0.622224 0c-0.0224134,-0.329528 -0.0289488,-0.652815 -0.0183898,-0.969378 -0.0579606,-0.0505236 -0.112421,-0.101752 -0.166693,-0.151669 -0.109232,0.204169 -0.395866,0.307524 -0.801244,0.0292126 -0.1775,-0.121858 -0.359327,-0.369165 -0.628138,-0.495803 1.20578,-0.55452 1.59222,0.0501102 1.45031,0.420717 0.0496299,0.0432913 0.0984528,0.0874606 0.148244,0.130878 0.0122402,-0.29789 0.0397874,-0.589764 0.0836654,-0.875217 -0.0518622,-0.0448031 -0.100248,-0.090378 -0.148461,-0.13472 -0.0916654,0.171339 -0.332209,0.258075 -0.672402,0.0245157 -0.148957,-0.102264 -0.301543,-0.309803 -0.52713,-0.416075 1.01188,-0.46535 1.33619,0.0420512 1.2171,0.353063 0.0464488,0.0405157 0.0920512,0.0819488 0.138886,0.122402 0.040685,-0.252783 0.0942874,-0.500488 0.161528,-0.742831 -0.0334843,-0.0297323 -0.0654213,-0.0596811 -0.0972598,-0.0889646 -0.0741024,0.138504 -0.268551,0.208622 -0.543559,0.0198189 -0.120413,-0.0826693 -0.243756,-0.250437 -0.426118,-0.336346 0.817984,-0.376181 1.08015,0.0339921 0.983878,0.285406 0.0313386,0.0273386 0.0622008,0.055189 0.093563,0.0826654 0.0968976,-0.341311 0.221043,-0.671909 0.374441,-0.991012 -0.0900039,0.496882 -0.144079,0.991528 -0.162693,1.48397 0.0314803,-0.0275039 0.0623976,-0.0554449 0.0938071,-0.0828425 -0.0923661,-0.241224 0.159169,-0.634768 0.943996,-0.273839 -0.174969,0.0824291 -0.293315,0.243398 -0.40885,0.322713 -0.263854,0.18115 -0.450421,0.113878 -0.52152,-0.0190157 -0.0355039,0.0326575 -0.0711339,0.0661732 -0.109075,0.0992205 -0.00842913,0.25311 -0.00748819,0.505634 0.00275591,0.757583 0.0385709,-0.0338858 0.0766102,-0.0681575 0.115209,-0.101827z"/>
   </g>
  </g>
  <path class="fil2" d="M3.41333 -3.93701e-006c1.88513,0 3.41333,1.5282 3.41333,3.41333 0,1.88513 -1.5282,3.41333 -3.41333,3.41333 -1.88513,0 -3.41333,-1.5282 -3.41333,-3.41333 0,-1.88513 1.5282,-3.41333 3.41333,-3.41333z"/>
  <path class="fil3" d="M5.14563 3.36297c-0.236185,0.111268 -0.395937,0.328555 -0.55189,0.435622 -0.989429,0.679287 -1.17374,-1.22921 0.55189,-0.435622z"/>
  <path class="fil4" d="M3.71385 3.87117c0.209972,-0.179748 0.393343,-0.381173 0.718087,-0.450059 0.131587,-0.0279094 0.160469,-0.0433425 0.299874,-0.0423031l-0.00151181 3.93701e-006c0.056626,0.0059685 0.0783465,0.016315 0.129913,0.0331929 -0.0439291,-0.00420472 -0.0129134,0.000291339 -0.064811,-0.0109094 -0.124972,-0.0269724 -0.237343,0.0147008 -0.357839,0.0438386 -0.338992,0.0819764 -0.498016,0.297594 -0.731213,0.492831l0.0075 -0.0665945z"/>
  <path class="fil4" d="M4.33104 3.45059c0.0214252,0.00225197 0.0432402,0.00537008 0.0655039,0.00947244 0.111764,0.0205945 0.139291,0.0178465 0.247835,0.0635748l-0.00118504 -0.000488189c0.0423071,0.0229094 0.0559331,0.0379882 0.0907717,0.0677835 -0.0329567,-0.017437 -0.0101811,-0.00393307 -0.0471024,-0.0294016 -0.0889173,-0.0613307 -0.190102,-0.0649882 -0.293602,-0.0810512 -0.0227362,-0.00352756 -0.044878,-0.00606693 -0.0664961,-0.0077126 0.00420472,-0.00656693 0.00572047,-0.0145276 0.00427559,-0.0221772z"/>
  <path class="fil4" d="M4.09191 3.56011c0.00120866,0.000216535 0.00240945,0.000413386 0.00362205,0.000637795 0.132287,0.024378 0.164874,0.021126 0.293346,0.075252l-0.00140157 -0.000574803c0.0500748,0.0271102 0.0662047,0.0449606 0.107437,0.0802283 -0.0390039,-0.0206417 -0.0120472,-0.00465748 -0.055748,-0.0348031 -0.105244,-0.0725906 -0.225012,-0.0769213 -0.347516,-0.0959331l-0.0026378 -0.000389764c0.00376772,-0.00752362 0.00480709,-0.0162165 0.00289764,-0.0244173z"/>
  <path class="fil4" d="M4.46886 3.4344c0.0107441,-0.00957874 0.0210157,-0.0195787 0.030752,-0.030063 0.0488819,-0.052622 0.0672559,-0.0632323 0.0938937,-0.122083l-0.00030315 0.000637795c0.00626378,-0.0244646 0.00204724,-0.0346654 -0.00164961,-0.0580984 -0.00520866,0.0189331 -0.0027874,0.00540945 -0.00381496,0.0284094 -0.00249213,0.0553898 -0.0588858,0.0985276 -0.106587,0.146354 -0.0104803,0.0105079 -0.0214134,0.0204685 -0.0327638,0.0299449 0.0077874,0.000228346 0.015122,0.00199606 0.0204724,0.00489764z"/>
  <path class="fil4" d="M4.16638 3.54004c0.000633858,-0.000677165 0.00127559,-0.00134252 0.00190551,-0.00202756 0.0688071,-0.0745591 0.0927205,-0.0889921 0.13663,-0.174343l-0.000488189 0.000925197c0.0125866,-0.0358228 0.00978346,-0.0512362 0.0104134,-0.0862323 -0.0101654,0.0277008 -0.00443701,0.00782677 -0.0105433,0.0418425 -0.0147165,0.0819252 -0.0903583,0.14189 -0.156752,0.209421l-0.00144488 0.00144488c0.00814567,0.00136614 0.0153661,0.00455906 0.0202795,0.0089685z"/>
  <path class="fil3" d="M1.68104 3.69236c0.268811,0.126638 0.450634,0.373945 0.628134,0.495803 1.12612,0.77313 1.33589,-1.39903 -0.628134,-0.495803z"/>
  <path class="fil4" d="M3.31061 4.27077c-0.23898,-0.204583 -0.447685,-0.433831 -0.817291,-0.512232 -0.149764,-0.0317717 -0.182638,-0.0493346 -0.341303,-0.0481496l0.00172441 0c-0.0644528,0.00679528 -0.0891732,0.0185748 -0.147866,0.0377835 0.05,-0.0047874 0.0147008,0.000330709 0.0737677,-0.0124173 0.142236,-0.0307008 0.27013,0.0167283 0.407272,0.0498937 0.385827,0.0933031 0.566819,0.338705 0.832232,0.560917l-0.00853543 -0.0757953z"/>
  <path class="fil4" d="M2.60816 3.79208c-0.0243819,0.00256299 -0.0492126,0.00611417 -0.0745512,0.0107835 -0.127205,0.023437 -0.158535,0.020311 -0.282075,0.0723543l0.00134646 -0.000551181c-0.0481496,0.0260709 -0.0636614,0.0432323 -0.103307,0.0771457 0.0375079,-0.0198465 0.0115866,-0.00447638 0.0536063,-0.0334646 0.101201,-0.0697992 0.216366,-0.0739646 0.334161,-0.092248 0.0258819,-0.00401575 0.0510827,-0.00690551 0.075689,-0.00877953 -0.0047874,-0.00747244 -0.00651181,-0.0165354 -0.00487008,-0.0252402z"/>
  <path class="fil4" d="M2.88033 3.91674c-0.00137795,0.000248031 -0.00274409,0.000468504 -0.00412598,0.000724409 -0.150563,0.0277441 -0.18765,0.0240433 -0.33387,0.0856457l0.00159449 -0.000653543c-0.0569921,0.0308583 -0.0753543,0.0511732 -0.12228,0.091311 0.0443937,-0.0234921 0.0137126,-0.00529528 0.0634488,-0.0396063 0.119783,-0.082622 0.256098,-0.0875472 0.395528,-0.109189l0.003 -0.000444882c-0.0042874,-0.00856299 -0.0054685,-0.0184528 -0.00329528,-0.0277874z"/>
  <path class="fil4" d="M2.4513 3.77366c-0.0122283,-0.0109016 -0.0239213,-0.0222835 -0.0350039,-0.0342126 -0.0556339,-0.0598976 -0.0765472,-0.0719724 -0.106862,-0.138949l0.00034252 0.000724409c-0.00712992,-0.0278465 -0.00233071,-0.0394528 0.00187795,-0.066126 0.0059252,0.0215512 0.00316929,0.00615748 0.00434252,0.0323386 0.00283465,0.0630394 0.0670197,0.112134 0.121311,0.166571 0.0119291,0.0119567 0.0243701,0.0232953 0.0372874,0.0340827 -0.0088622,0.000259843 -0.0172126,0.00226772 -0.0232953,0.00557087z"/>
  <path class="fil4" d="M2.79557 3.89389c-0.000720472,-0.000775591 -0.00145276,-0.00153543 -0.00216929,-0.00231102 -0.078311,-0.0848622 -0.105528,-0.101287 -0.155504,-0.198425l0.000555118 0.00105118c-0.0143228,-0.0407717 -0.0111378,-0.058315 -0.0118504,-0.0981457 0.0115709,0.0315276 0.00504724,0.00890551 0.012,0.047622 0.016748,0.0932441 0.102839,0.161492 0.178406,0.238354l0.00164567 0.00164567c-0.00926772,0.00155512 -0.0174882,0.00518504 -0.0230827,0.0102087z"/>
  <path class="fil3" d="M2.01527 2.84246c0.225587,0.106272 0.378173,0.313811 0.52713,0.416075 0.945031,0.648803 1.12107,-1.17406 -0.52713,-0.416075z"/>
  <path class="fil4" d="M3.3828 3.32785c-0.200551,-0.171681 -0.375697,-0.364067 -0.685866,-0.429862 -0.125681,-0.0266575 -0.153272,-0.0413976 -0.286421,-0.0404055l0.00144488 3.93701e-006c-0.0540866,0.00569685 -0.0748307,0.0155827 -0.124083,0.0317047 0.0419567,-0.00401969 0.0123346,0.000275591 0.0619016,-0.0104213 0.119366,-0.0257638 0.226693,0.0140394 0.341783,0.0418701 0.32378,0.0782992 0.475669,0.28424 0.698402,0.470717l-0.00716142 -0.0636063z"/>
  <path class="fil4" d="M2.79331 2.92614c-0.0204646,0.00214961 -0.0413031,0.00512992 -0.0625669,0.00904724 -0.106748,0.0196693 -0.133043,0.0170433 -0.236713,0.0607205l0.00112992 -0.000464567c-0.0404055,0.0218819 -0.0534252,0.0362835 -0.0866969,0.0647441 0.0314764,-0.0166575 0.00972441,-0.00375984 0.0449882,-0.0280866 0.0849252,-0.0585748 0.181571,-0.0620709 0.280425,-0.0774134 0.0217205,-0.00337008 0.0428661,-0.00579528 0.0635157,-0.00736614 -0.00401575,-0.00627165 -0.00546457,-0.013878 -0.00408268,-0.0211811z"/>
  <path class="fil4" d="M3.02171 3.03076c-0.00115354,0.000204724 -0.00230315,0.000393701 -0.00346063,0.000610236 -0.12635,0.0232795 -0.157472,0.0201732 -0.280181,0.0718701l0.00133465 -0.000547244c-0.0478268,0.0258976 -0.0632323,0.0429449 -0.102614,0.0766299 0.0372559,-0.0197165 0.0115079,-0.00444882 0.053248,-0.0332402 0.100524,-0.0693346 0.214917,-0.0734724 0.331925,-0.0916299l0.00251575 -0.000374016c-0.00359843,-0.00718504 -0.00459055,-0.0154882 -0.00276772,-0.0233189z"/>
  <path class="fil4" d="M2.66167 2.91068c-0.0102638,-0.00914567 -0.0200748,-0.0187008 -0.029374,-0.0287126 -0.046689,-0.0502638 -0.0642402,-0.0603976 -0.0896811,-0.116602l0.000287402 0.000606299c-0.00598031,-0.0233661 -0.00195276,-0.0331063 0.00157874,-0.0554921 0.00497244,0.0180866 0.00266142,0.00516929 0.00364567,0.0271378 0.00237795,0.0529055 0.0562402,0.0941024 0.101799,0.139787 0.0100118,0.0100354 0.0204528,0.0195512 0.0312953,0.0285984 -0.00743701,0.000220472 -0.0144449,0.00190551 -0.0195512,0.00467717z"/>
  <path class="fil4" d="M2.95058 3.01158c-0.000606299,-0.000649606 -0.00122047,-0.0012874 -0.0018189,-0.00194094 -0.0657205,-0.0712126 -0.0885591,-0.0849961 -0.1305,-0.166516l0.000468504 0.00088189c-0.0120236,-0.0342165 -0.00935039,-0.048937 -0.00994882,-0.0823622 0.00970866,0.0264567 0.00423622,0.00747244 0.0100709,0.0399646 0.0140551,0.078248 0.0863031,0.135524 0.149717,0.200024l0.00138189 0.00138189c-0.00777953,0.00130709 -0.0146772,0.00435433 -0.0193701,0.00856693z"/>
  <path class="fil3" d="M2.46584 2.1696c0.182358,0.0859134 0.305705,0.253681 0.426118,0.33635 0.763949,0.52448 0.906256,-0.949087 -0.426118,-0.33635z"/>
  <path class="fil4" d="M3.57133 2.56198c-0.162122,-0.138783 -0.303705,-0.294303 -0.554441,-0.347492 -0.101598,-0.0215512 -0.123902,-0.0334685 -0.231535,-0.0326614l0.00116535 0c-0.0437205,0.0046063 -0.0604921,0.0125984 -0.100307,0.0256299 0.0339213,-0.00324803 0.00997244,0.000224409 0.0500394,-0.0084252 0.0964961,-0.0208228 0.183256,0.0113504 0.276291,0.0338465 0.26174,0.0632992 0.384524,0.229776 0.564579,0.38052l-0.00579134 -0.0514173z"/>
  <path class="fil4" d="M3.09479 2.23725c-0.0165433,0.00173622 -0.0333858,0.00414567 -0.0505748,0.00731102 -0.0862953,0.0159016 -0.107551,0.0137795 -0.191354,0.0490866l0.000913386 -0.000374016c-0.0326654,0.017689 -0.043189,0.0293307 -0.0700827,0.0523346 0.0254409,-0.0134646 0.00785827,-0.00303543 0.0363661,-0.0227008 0.0686535,-0.0473543 0.14678,-0.0501772 0.226689,-0.0625787 0.0175591,-0.00272441 0.0346535,-0.00468898 0.0513465,-0.00595669 -0.00324803,-0.00507087 -0.00441732,-0.0112165 -0.00330315,-0.017122z"/>
  <path class="fil4" d="M3.27943 2.32181c-0.000933071,0.000165354 -0.0018622,0.000318898 -0.00279528,0.000492126 -0.102142,0.0188228 -0.127303,0.016311 -0.226496,0.0581024l0.00107874 -0.000444882c-0.0386614,0.0209331 -0.0511142,0.0347165 -0.0829528,0.0619449 0.0301181,-0.015937 0.00930315,-0.00359449 0.0430472,-0.0268701 0.0812598,-0.0560472 0.173732,-0.0593898 0.268319,-0.0740709l0.00203543 -0.00030315c-0.00290945,-0.00580709 -0.00370866,-0.0125197 -0.00223622,-0.0188504z"/>
  <path class="fil4" d="M2.98838 2.22475c-0.00829528,-0.0073937 -0.0162283,-0.0151142 -0.0237441,-0.0232087 -0.0377441,-0.0406339 -0.0519291,-0.0488228 -0.0724961,-0.0942598l0.000232283 0.000492126c-0.00483465,-0.0188937 -0.00157874,-0.0267677 0.00127559,-0.0448622 0.00401969,0.014622 0.00214961,0.0041811 0.00294488,0.021937 0.00192126,0.0427677 0.0454646,0.0760748 0.0822953,0.113 0.00809449,0.00811417 0.0165315,0.0158071 0.0252953,0.023122 -0.00601181,0.000177165 -0.0116732,0.00153937 -0.0158031,0.00377953z"/>
  <path class="fil4" d="M3.22193 2.30631c-0.000488189,-0.000523622 -0.000988189,-0.00103937 -0.00147244,-0.00156693 -0.053126,-0.0575669 -0.0715906,-0.0687087 -0.105492,-0.13461l0.000377953 0.000716535c-0.00972047,-0.0276614 -0.00755512,-0.039563 -0.00804331,-0.0665827 0.00785039,0.0213898 0.0034252,0.00604331 0.00814173,0.0323071 0.0113622,0.0632559 0.0697638,0.109555 0.121028,0.161697l0.00111811 0.00111417c-0.0062874,0.00105512 -0.0118661,0.00351969 -0.0156575,0.0069252z"/>
  <path class="fil3" d="M4.79283 2.67395c-0.174965,0.0824291 -0.293311,0.243398 -0.408843,0.322713 -0.73298,0.50322 -0.869516,-0.910614 0.408843,-0.322713z"/>
  <path class="fil4" d="M3.73216 3.05043c0.155551,-0.133161 0.291394,-0.282378 0.531965,-0.333409 0.0974803,-0.0206772 0.118878,-0.0321102 0.222154,-0.0313386l-0.00112205 3.93701e-006c0.0419488,0.00442126 0.0580394,0.0120866 0.0962402,0.0245906 -0.0325433,-0.00311811 -0.00956693,0.000212598 -0.0480118,-0.00808268 -0.0925787,-0.0199803 -0.175823,0.0108898 -0.265091,0.0324724 -0.251126,0.0607323 -0.368933,0.220461 -0.541689,0.365094l0.00555512 -0.0493307z"/>
  <path class="fil4" d="M4.18938 2.73885c0.015874,0.00166535 0.0320315,0.00397638 0.0485276,0.00701575 0.0827953,0.0152559 0.103189,0.0132205 0.183598,0.0470984l-0.000877953 -0.000362205c0.0313386,0.0169724 0.041437,0.0281417 0.0672441,0.0502126 -0.0244134,-0.0129173 -0.00754331,-0.00291339 -0.0348937,-0.0217795 -0.0658701,-0.0454331 -0.140831,-0.0481417 -0.217504,-0.0600433 -0.0168425,-0.00261417 -0.033248,-0.00449606 -0.0492638,-0.0057126 0.00311811,-0.00486614 0.00424016,-0.0107638 0.00316929,-0.0164291z"/>
  <path class="fil4" d="M4.01222 2.81999c0.000897638,0.000161417 0.0017874,0.000307087 0.00268504,0.000472441 0.098,0.0180591 0.122138,0.0156496 0.217315,0.055748l-0.00103937 -0.000429134c0.0370945,0.0200866 0.0490472,0.033311 0.0795906,0.059437 -0.0288937,-0.0152913 -0.0089252,-0.00344882 -0.0412992,-0.0257835 -0.0779646,-0.0537756 -0.166693,-0.0569843 -0.257445,-0.0710669l-0.00195276 -0.000291339c0.00279134,-0.00557087 0.00355906,-0.0120118 0.00214567,-0.0180866z"/>
  <path class="fil4" d="M4.29148 2.72686c0.00795669,-0.00709449 0.0155669,-0.0145039 0.0227795,-0.0222677 0.0362126,-0.0389843 0.0498268,-0.0468465 0.0695591,-0.0904409l-0.000224409 0.000472441c0.00464173,-0.018126 0.00151575,-0.0256811 -0.00122047,-0.0430433 -0.00385827,0.0140276 -0.00206693,0.00401181 -0.00283071,0.0210512 -0.00184252,0.0410315 -0.0436181,0.0729882 -0.0789567,0.108417 -0.00776378,0.00778346 -0.0158622,0.0151654 -0.0242717,0.022185 0.00576772,0.000169291 0.0112047,0.00147638 0.0151654,0.00362598z"/>
  <path class="fil4" d="M4.0674 2.80512c0.000468504,-0.000503937 0.000944882,-0.000996063 0.00140945,-0.00150394 0.0509724,-0.0552323 0.068689,-0.0659252 0.101217,-0.129154l-0.000362205 0.000685039c0.00932677,-0.0265354 0.00725197,-0.0379567 0.00771654,-0.0638819 -0.0075315,0.0205236 -0.0032874,0.00579921 -0.00781102,0.031 -0.0109016,0.060689 -0.066937,0.10511 -0.116122,0.155142l-0.00107087 0.00107087c0.0060315,0.00101181 0.0113819,0.00337402 0.0150236,0.00664173z"/>
  <path class="fil5" d="M3.2955 5.28c-0.0926732,-1.36241 0.0861063,-2.6181 0.622224,-3.73334 -0.227988,1.25863 -0.225417,2.50291 0,3.73334l-0.622224 0z"/>
 </g>
</svg>
